#tb 0: 1/6
0,          0,          0,        1,    80640, 0x00000000
0,          1,          1,        1,    80640, 0x3a942680
0,          2,          2,        1,    80640, 0x3a942680
0,          3,          3,        1,    80640, 0x3a942680
0,          4,          4,        1,    80640, 0x3a942680
0,          5,          5,        1,    80640, 0x3a942680
0,          6,          6,        1,    80640, 0x3a942680
0,          7,          7,        1,    80640, 0x1956ebfc
0,          8,          8,        1,    80640, 0x61686290
0,          9,          9,        1,    80640, 0x7e2c2753
0,         10,         10,        1,    80640, 0x63e5e14f
0,         11,         11,        1,    80640, 0xa775947a
0,         12,         12,        1,    80640, 0x4b91b93d
0,         13,         13,        1,    80640, 0x83345f32
0,         14,         14,        1,    80640, 0x5d3a3374
0,         15,         15,        1,    80640, 0x164808c5
0,         16,         16,        1,    80640, 0xfd0189af
0,         17,         17,        1,    80640, 0x062f9389
0,         18,         18,        1,    80640, 0xe4dcaff8
0,         19,         19,        1,    80640, 0xb2d9ec51
0,         20,         20,        1,    80640, 0x3b4d5331
0,         21,         21,        1,    80640, 0xfcbd8da1
0,         22,         22,        1,    80640, 0xa0732142
0,         23,         23,        1,    80640, 0x6438df5f
0,         24,         24,        1,    80640, 0x614302fa
0,         25,         25,        1,    80640, 0x53edf986
0,         26,         26,        1,    80640, 0x6dfe13f0
0,         27,         27,        1,    80640, 0x0b2194c3
0,         28,         28,        1,    80640, 0xe0436945
0,         29,         29,        1,    80640, 0x8d8ba77f
0,         30,         30,        1,    80640, 0x9c723388
0,         31,         31,        1,    80640, 0x336bd2a2
0,         32,         32,        1,    80640, 0x5905fd0b
0,         33,         33,        1,    80640, 0x2ca368bb
0,         34,         34,        1,    80640, 0x38c1e5ec
0,         35,         35,        1,    80640, 0xe439a194
0,         36,         36,        1,    80640, 0xe7a19a64
0,         37,         37,        1,    80640, 0xbe7f9094
0,         38,         38,        1,    80640, 0x0b2cbec9
0,         39,         39,        1,    80640, 0x8050bf7d
0,         40,         40,        1,    80640, 0x4e9d4e78
0,         41,         41,        1,    80640, 0xaa7bb85d
0,         42,         42,        1,    80640, 0x6e42b1a6
0,         43,         43,        1,    80640, 0x27043fe0
0,         44,         44,        1,    80640, 0xe04bd5e6
0,         45,         45,        1,    80640, 0xd60762d6
0,         46,         46,        1,    80640, 0x2729df8f
0,         47,         47,        1,    80640, 0x1b62c4f7
0,         48,         48,        1,    80640, 0xe6b5d2f7
0,         49,         49,        1,    80640, 0xf5885096
0,         50,         50,        1,    80640, 0xe7625cf6
0,         51,         51,        1,    80640, 0xed804de6
0,         52,         52,        1,    80640, 0x3f92728e
0,         53,         53,        1,    80640, 0x353e4b0d
0,         54,         54,        1,    80640, 0x70b0228c
0,         55,         55,        1,    80640, 0x851bd554
0,         56,         56,        1,    80640, 0x594f22eb
0,         57,         57,        1,    80640, 0xa2267c0b
0,         58,         58,        1,    80640, 0xdc0fbafb
0,         59,         59,        1,    80640, 0xd596b763
0,         60,         60,        1,    80640, 0x3b9c4b1b
0,         61,         61,        1,    80640, 0x218ac4b4
0,         62,         62,        1,    80640, 0x4af393a4
0,         63,         63,        1,    80640, 0x66c098c5
0,         64,         64,        1,    80640, 0x7cc91e86
0,         65,         65,        1,    80640, 0xba282a2e
0,         66,         66,        1,    80640, 0x50932be6
0,         67,         67,        1,    80640, 0x6531386e
0,         68,         68,        1,    80640, 0x2616235f
0,         69,         69,        1,    80640, 0x27aad18a
0,         70,         70,        1,    80640, 0x67491df3
0,         71,         71,        1,    80640, 0x167028f1
0,         72,         72,        1,    80640, 0xa4229420
0,         73,         73,        1,    80640, 0x77eaed07
0,         74,         74,        1,    80640, 0xbdf7d8e8
0,         75,         75,        1,    80640, 0xc2ac8545
0,         76,         76,        1,    80640, 0xf3fe64ec
0,         77,         77,        1,    80640, 0x66451d43
0,         78,         78,        1,    80640, 0x1af2f05e
0,         79,         79,        1,    80640, 0x2a63c2c4
0,         80,         80,        1,    80640, 0xe4e07a0f
0,         81,         81,        1,    80640, 0x598e8b11
0,         82,         82,        1,    80640, 0xb2ebb868
0,         83,         83,        1,    80640, 0xa4b6bb8a
0,         84,         84,        1,    80640, 0x5037e910
0,         85,         85,        1,    80640, 0x0c55f6c0
0,         86,         86,        1,    80640, 0x3f4704f7
0,         87,         87,        1,    80640, 0xa6a8e810
0,         88,         88,        1,    80640, 0xedbfcfb0
0,         89,         89,        1,    80640, 0xe568caa0
0,         90,         90,        1,    80640, 0xdf21cc20
0,         91,         91,        1,    80640, 0xb66cd4a8
0,         92,         92,        1,    80640, 0xcd26c9c8
0,         93,         93,        1,    80640, 0x5fe8d598
0,         94,         94,        1,    80640, 0xed0dc9c8
0,         95,         95,        1,    80640, 0x8313d288
0,         96,         96,        1,    80640, 0x9ccdd4a0
0,         97,         97,        1,    80640, 0x66ffe970
0,         98,         98,        1,    80640, 0xf68ad1c8
0,         99,         99,        1,    80640, 0xd570f658
0,        100,        100,        1,    80640, 0x8c39d998
0,        101,        101,        1,    80640, 0xe18fe5e0
0,        102,        102,        1,    80640, 0xbbe7e340
0,        103,        103,        1,    80640, 0x9a90d470
0,        104,        104,        1,    80640, 0xd2bbced0
0,        105,        105,        1,    80640, 0xbbf9dce0
0,        106,        106,        1,    80640, 0x4ff7c888
0,        107,        107,        1,    80640, 0xc2e7e1f0
0,        108,        108,        1,    80640, 0x2104e3b0
0,        109,        109,        1,    80640, 0xaef5e8f0
0,        110,        110,        1,    80640, 0xc477e890
0,        111,        111,        1,    80640, 0xb12df778
0,        112,        112,        1,    80640, 0xd2115720
0,        113,        113,        1,    80640, 0x620b6538
0,        114,        114,        1,    80640, 0x894a8db8
0,        115,        115,        1,    80640, 0x8da3bcb0
0,        116,        116,        1,    80640, 0x96be8930
0,        117,        117,        1,    80640, 0xe69dc1f0
0,        118,        118,        1,    80640, 0x42b8d4e0
0,        119,        119,        1,    80640, 0x0a8da4f0
0,        120,        120,        1,    80640, 0x245fd3d8
0,        121,        121,        1,    80640, 0x3fd1e858
0,        122,        122,        1,    80640, 0xe2c299f0
0,        123,        123,        1,    80640, 0xda1cddd0
0,        124,        124,        1,    80640, 0xf126e498
0,        125,        125,        1,    80640, 0xc85ab920
0,        126,        126,        1,    80640, 0x52f39de8
0,        127,        127,        1,    80640, 0xd0daac60
0,        128,        128,        1,    80640, 0xef323347
0,        129,        129,        1,    80640, 0xcc063317
0,        130,        130,        1,    80640, 0xb6f53057
0,        131,        131,        1,    80640, 0x5fe53b07
0,        132,        132,        1,    80640, 0x63183d7f
0,        133,        133,        1,    80640, 0x91a44bbf
0,        134,        134,        1,    80640, 0xa433480f
0,        135,        135,        1,    80640, 0xe90652ef
0,        136,        136,        1,    80640, 0xe96e35bf
0,        137,        137,        1,    80640, 0x84ff2ccf
0,        138,        138,        1,    80640, 0x930f2b07
0,        139,        139,        1,    80640, 0x5a1228d7
0,        140,        140,        1,    80640, 0x29f226ef
0,        141,        141,        1,    80640, 0xd35136df
0,        142,        142,        1,    80640, 0x0e2d407f
0,        143,        143,        1,    80640, 0x34a93267
0,        144,        144,        1,    80640, 0x7ae82af7
0,        145,        145,        1,    80640, 0xb20c2477
0,        146,        146,        1,    80640, 0xa104218f
0,        147,        147,        1,    80640, 0xcb1121e7
0,        148,        148,        1,    80640, 0xaca04751
0,        149,        149,        1,    80640, 0x3a51c704
0,        150,        150,        1,    80640, 0xfa632e3d
0,        151,        151,        1,    80640, 0x61c9407c
0,        152,        152,        1,    80640, 0xe9a08dd9
0,        153,        153,        1,    80640, 0xebf3c623
0,        154,        154,        1,    80640, 0x00000000
0,        155,        155,        1,    80640, 0x0f412500
0,        156,        156,        1,    80640, 0x0f412500
0,        157,        157,        1,    80640, 0x0f412500
0,        158,        158,        1,    80640, 0xb6634270
0,        159,        159,        1,    80640, 0x9e43a4a0
0,        160,        160,        1,    80640, 0x136ab60b
0,        161,        161,        1,    80640, 0x6ce3254e
0,        162,        162,        1,    80640, 0xf4340d15
0,        163,        163,        1,    80640, 0x73861114
0,        164,        164,        1,    80640, 0x36b300d3
0,        165,        165,        1,    80640, 0x2ddde523
0,        166,        166,        1,    80640, 0xfdd79c02
0,        167,        167,        1,    80640, 0xe6cc4fe9
0,        168,        168,        1,    80640, 0x5b13e2b9
0,        169,        169,        1,    80640, 0x0d588e70
0,        170,        170,        1,    80640, 0xc6e4023f
0,        171,        171,        1,    80640, 0xf54c496f
0,        172,        172,        1,    80640, 0xa315a5cf
0,        173,        173,        1,    80640, 0x2d2ac9c7
